/* XPM */
static char *wall3[] = {
/* columns rows colors chars-per-pixel */
"60 60 251 2 ",
"   c #751D17",
".  c #742507",
"X  c #742118",
"o  c #6D2114",
"O  c #6D1C28",
"+  c #731D28",
"@  c #6D173C",
"#  c #6C1A3C",
"$  c #6B1B35",
"%  c #73153C",
"&  c #72193D",
"*  c #78173A",
"=  c #6E2128",
"-  c #76252A",
";  c #7A3025",
":  c #6C1C41",
">  c #6D1640",
",  c #741641",
"<  c #7B1543",
"1  c #721A42",
"2  c #7A1A45",
"3  c #752A4A",
"4  c #862D04",
"5  c #843200",
"6  c #8E2E2F",
"7  c #831F2B",
"8  c #964E13",
"9  c #AD5231",
"0  c #BC7237",
"q  c #C46C3C",
"w  c #831847",
"e  c #8E1751",
"r  c #99285A",
"t  c #99325D",
"y  c #882851",
"u  c #A93546",
"i  c #AD3555",
"p  c #9E2D62",
"a  c #BD2E6C",
"s  c #B32C67",
"d  c #AD346A",
"f  c #AD396C",
"g  c #A83867",
"h  c #B4346C",
"j  c #BA336D",
"k  c #B33968",
"l  c #BC2F72",
"z  c #B53371",
"x  c #BB3271",
"c  c #B83A72",
"v  c #A83B72",
"b  c #C53475",
"n  c #C93374",
"m  c #934750",
"M  c #B05C52",
"N  c #9E5777",
"B  c #984F6A",
"V  c #A95968",
"C  c #AD4A73",
"Z  c #A65778",
"A  c #B7557C",
"S  c #B14A72",
"D  c #CE7B56",
"F  c #CC417E",
"G  c #C57073",
"H  c #E07356",
"J  c #E69D1E",
"K  c #E4A11F",
"L  c #EC9D25",
"P  c #EC9D2B",
"I  c #E79B28",
"U  c #F19C2C",
"Y  c #F59A2A",
"T  c #EC9C35",
"R  c #EC9C3B",
"E  c #EA983A",
"W  c #F39B33",
"Q  c #F2963E",
"!  c #F29A3B",
"~  c #F79735",
"^  c #E6A323",
"/  c #EBA225",
"(  c #EDA22A",
")  c #ECAA28",
"_  c #F4A52C",
"`  c #EEB12A",
"'  c #F3B52C",
"]  c #F4A334",
"[  c #F9A335",
"{  c #F9A938",
"}  c #FBBB36",
"|  c #FEB33E",
" . c #FEBD3B",
".. c #F6B636",
"X. c #E8A031",
"o. c #FBC435",
"O. c #FDC23B",
"+. c #F7C536",
"@. c #F6C02C",
"#. c #DA9256",
"$. c #F38E48",
"%. c #ED9544",
"&. c #EC9A43",
"*. c #EC954A",
"=. c #E89A49",
"-. c #F39544",
";. c #F39A43",
":. c #F3944B",
">. c #F89648",
",. c #EA8A58",
"<. c #F48E5B",
"1. c #F68E56",
"2. c #EB945B",
"3. c #E99654",
"4. c #F49353",
"5. c #F2925C",
"6. c #F89753",
"7. c #E98E4C",
"8. c #F5A442",
"9. c #FEAD43",
"0. c #FAAA47",
"q. c #FEB444",
"w. c #FFBC43",
"e. c #FFB54C",
"r. c #FFBA4B",
"t. c #F5BD44",
"y. c #FEBA52",
"u. c #FDB557",
"i. c #EEA850",
"p. c #EC8B64",
"a. c #F58D62",
"s. c #F48C6C",
"d. c #F78D68",
"f. c #EA9463",
"g. c #F69262",
"h. c #FB9466",
"j. c #EA8979",
"k. c #F58A75",
"l. c #F4867C",
"z. c #F58A7B",
"x. c #F88977",
"c. c #EA9175",
"v. c #F89472",
"b. c #FFB667",
"n. c #FDAF70",
"m. c #DF9069",
"M. c #FEC241",
"N. c #FDC14B",
"B. c #DD3F89",
"V. c #D84A88",
"C. c #DD5692",
"Z. c #DB5B93",
"A. c #D75B95",
"S. c #C9578A",
"D. c #E1538D",
"F. c #EE4E93",
"G. c #E25593",
"H. c #E55895",
"J. c #F44D95",
"K. c #CA638F",
"L. c #D66594",
"P. c #D56E8E",
"I. c #F67E9B",
"U. c #FA7E9C",
"Y. c #F67E92",
"T. c #F07292",
"R. c #DA7AA2",
"E. c #EE7DAC",
"W. c #E37CA8",
"Q. c #F67DA4",
"!. c #FA7DA3",
"~. c #FB77AE",
"^. c #F57DAD",
"/. c #FA7CAD",
"(. c #F776AF",
"). c #EF7FB2",
"_. c #FD77B2",
"`. c #F67DB3",
"'. c #FB7BB3",
"]. c #F77BB9",
"[. c #FA7CB9",
"{. c #FF77B9",
"}. c #E66EA3",
"|. c #D58C92",
" X c #EB8A88",
".X c #F58584",
"XX c #F48984",
"oX c #F5848C",
"OX c #F9838C",
"+X c #F78888",
"@X c #EA8699",
"#X c #F68394",
"$X c #F98494",
"%X c #F6839B",
"&X c #F9829C",
"*X c #EF9189",
"=X c #FFAB81",
"-X c #DC8AAA",
";X c #D691AA",
":X c #D991B1",
">X c #E485AC",
",X c #EC83AD",
"<X c #E38AAC",
"1X c #EA87A9",
"2X c #F483A3",
"3X c #FA82A3",
"4X c #F281AD",
"5X c #FA81AB",
"6X c #F489A7",
"7X c #EC83B2",
"8X c #E988B3",
"9X c #F382B3",
"0X c #FB81B4",
"qX c #F785B8",
"wX c #E692B4",
"eX c #F39ABD",
"rX c #FF92C5",
"tX c #FDA8CB",
"yX c #FFACD7",
"uX c #FFB5DC",
"iX c #FFBCDD",
"pX c #FDBAD5",
"aX c #F5AECB",
"sX c #FFBBE2",
"dX c #FFB5E2",
"fX c #ECCCD5",
"gX c #EBCBD7",
"hX c #F5C7DA",
"jX c #FDC3DB",
"kX c #F3CBDA",
"lX c #F6C7D6",
"zX c #E9D1D7",
"xX c #FCDBDC",
"cX c #E9C8CF",
"vX c #FDC8E6",
"bX c #FFD2EB",
"nX c #FBDAE6",
"mX c #FFDDFA",
"MX c #FFD6F5",
"NX c #FFC5F2",
"BX c #FFE8EC",
"VX c #FFF5ED",
"CX c #FEF8EF",
"ZX c #FFE4F5",
"AX c #FFECF4",
"SX c #FFE3FB",
"DX c #FFECFB",
"FX c #FFF3F3",
"GX c #FFF9F1",
"HX c #FFF2F9",
"JX c #FFF9FC",
/* pixels */
"_./.'./._._._.{._.'._././.~._.'.`.`.[.'./.5X^.4X`.^./.^._.(.4X9X`.`.`.4X0X9X4X0X`.].].'././._.'.].0X`.[.`.0X`.[.`.{.0X0X",
"_._.~.0X/.'.0X`.`.(./././.~._.'.`.0X'.0XI.$XoXoXoX%X6X4X0X0X0X`.`.`.`.0XE.`.`.^.0X`.'.'.5X/._.'.[.'.'./.`.[.(.`.[.{.`.`.",
"'._.'./.'.[.>X>X,XE.7XE.5X/.`.(.^.0X[.!.k.a.4.4.n.v.*X6X4X`.^.`.'._.`.^.0X^./.`.0X`.'._._./._.'.{./._./.!.^.5X0X`.`.`.`.",
"{._.'.'.^.>XSXmXwXvXmX>X4X/.'.'././.'.$Xg.;.e.X.X.b.=X*X%X&X$X$X$X$X!./.^.!.3X!.^.`.`.'././._._./.4X4XE.,X1X<X>X0X[.[.0X",
"{._.{.,X<XbXjXlXDXDXDXbX7X'.].'.`././..X*.] r.X.X.y.u.n.s.k.a.:.*.n.oX%X%XOXl.OX2XqX^./.(._._.^.,X>XbXZX;XMXAXiX9X_.`.'.",
"_._.`.4X<XZXlXgXAXJXHXSX7X_.{._./.5X2Xl.&. .} w.( ..M.y.g.5.R ] / u.=Xj.k.s.a.s..XoX.X$X&X5X'.`.,XSXgXnXVXVXFXZX7X_._.'.",
"_./._.^.1XMXnXfXFXFXSXeX0X/.'.'.'.5X#Xv.&. .+.o.P ( o.w.4.5.8.w.L 0.b.3.:.;.-.-.:.:.6.<.z.%X^.9X,XmXhXzXzXFXAXSX9X_._.'.",
"_././.`.9X1XpXjXZXZXtX,XQ.U.Y.$X$X+Xk.4.T O.+.o.L L o.O.&.-.X.w.P { r.r.W { e.U Y U q.-.k.$X2X`.7XtXmXfXzXHXZX-X4X_.'._.",
"_.'.'./.'.'.`.4XMX-X7X/.Y..Xd.4.:.6.R R P w.o.o._ / o.o.W W ^ +.P P O.O.L Y | L  . . .-.XX!.5X`.`.7XwXjXgXSXyX,X`._._.'.",
"{._.'._._.{.{.'.`.7X'.I..Xa.Q Y W U P w.I ( o.o. .) `  .Y [ O.o.( ( o.o.Y Y W / +.O.` %.z.$XU.!.`.0X).-XSXsX1X`.'._.'.'.",
"'._._.'.[.'.'._.'.`./.$Xd.b.r.( U U  . .( ^ O.+.o.K K w.U ] O.o. .K @.o.Y ~ [ / +.+.} W >.d.x.OX5X`.`.E.qX7X`.'._./.'.0X",
"_._./._._.`././._._.!.oX2.r.w.O.P { M.O. .I o.+.+.` ( q.U P M.O.O.K `  .W ~ W ( M.O. .J ~ >.1.s.$X/./.[.'.'.'.'.'.'.'.`.",
"'.'._.'.`.5X'._.'.`.5XXX=.w.O.o._ J o.O.O.^ ^ O.o.o.I q.W L  .O._ L /  .W Y W U w.( ^ / U W ~ 1.+X!.Q.0X[.`.`.'.'._.'.'.",
"`.`._._._.`.'.'.'._.!.XX%...o.@.} J ) o. .' ^  .o.} ( U P ( O./ U ( L w.] Y [ U P / )  . .W U -.z.&X5X(.'.'.0X(._.'.'._.",
"`.`.'./.{._._.'././._.$X4._ o.+.+.^ K O.o.} U ( o.o.) L O.O.L / }  ./ [ | L U U ^ } O.O.U W ~ >.x.#XQ._.{.0X_././.'.[.`.",
"'.`.'./.`._.{././././.OX1.W  .+.+.} / _ o.o._ P o.o._ L  .K / ..o.o./ L q.Y U ( M.O.O.I U ~ Q 1.z.&X!./.(._./././._.`.`.",
"'.'.'./././.'.'._.!.Y.k.6.R { o.+.o./ / o.o. .^ ..+.w.L L ^ ..o.o.o._ U U P } O.w._ J ( ! ;.1.x.$X/././.'._._./._././.`.",
"{._._.'./.(.'.'.~.!.+Xx.$.! ^ O.+.o._ L ` o.O.K ) M. .L ( _ o.+.o.O./ ( P w.O.` J / / w.{ %.s.Y.!.'.`.'././._././.'._.'.",
"'.'.'.'.`.`.'.'./.U.l.a.>.~ ..O.+.O.O./ ^ M.M.^ ^ } M.X./  .O.O.( L ^ .. . ./ / / }  .w.W 4..X!./._.'.'._._._.'._._.'.'.",
"`.'._._.'.'.'.`.~.!.OXd.~ Y (  .+.+.o.` X...M.` /  .O.` /  .O.) / _  .O. ./ L [ J  . .P Q 1.OX/._._._.'._.'.'.'._.'.'._.",
"_.'._.'.{._.[.9X{.5X#Xk.Q Y Y [ O.o.+.M.( ( M.+./ _ O.O.P { U L ..O.w.q.L L | ] U | I ~ $.d.$X!./._._._.'._.'._.'.'._._.",
"`.'.'._._.{.].].[.^.3XXX4.Y ~ ~ ] r.N.N.8.R +.M.L P O.} U U W 9.N.M.P P U r.T &.-.-.Q Q <.x.&X!._._._._.'./._.'.'._._._.",
"/./._./._./.'.[.[.'.'.$X<.%.:.%.3.#.#.b.n.=.X.N.q.X...O.| T 8.u.y.R &.;.! ! 5.p.9 d.1.1.x.Y.U.~./.'.'.'.'.'.'.'.`.'.'._.",
"5X/./._././._.'.{.'.'.&Xk.5.2.5 . . . . . 8 0 #.8 =.=.u.i.3.3.. 5 2.4 5.4.2.9 9 u u H a.6 !.!.~.`.`.'.'._.'.'.`./.'._.'.",
"0X^._./.'.'.0X/._./.0X2X+Xj. XX O $ $ O + = = = o ; G 6 6 6 m ; + 7 u i u u i k k k i 6 p /.(._.'./.'._._./.{./.'._._._.",
"`.`.0X`._.'././.'._.`.5X#X+ + O $ # @ , , & w 2 2 # + 7 * * + y f d j j j s h k h z p w }.[.{.`.(.4X^.^.'./._._._./.'.'.",
"0X`.(.`.'._._.{.'.`.^.0X5XP.* : # : , < r f h d t e g s b s k k x b b a h j k s h k < 1 ^.^.`.`.1X<X,X).E.^.'./.'.'.'.'.",
"7X,X7X7X7X9X[._.{.(././.`.9X, : : 2 v p h h x x c x b D.J.F.n V.G.G.G.G.j h j k h w # 1 4X`.9X<XSXSX:XmXSX<X/._.`.`._._.",
";XSXSX:XZXZX7X{._.'.'.'.^.9X< % & t c z b F.C.C.A.C.F.J.J.J.J.H.Z.qXL.C.H.x z z g % $ @ qX`.-XMXjXkXDXDXDXSX)./.'./._.'.",
"nXZXkXnXJXFX<X4X'._./.`.`.9X2 % % t h l F.D.}.dXdXNXF.F.J.F.H.yXuXuXsXdXqXH.l z 2 & # # 7X`.8XMXlXzXDXFXDXDX4X~._./.'._.",
"AXcXkXgXVXFXZX<X^.`.`.].`.9XA @ % t s V.A.yXiXlXhXSXpXK.Z.Z.uXjXlXhXhXjXiXL.C.l < % # y 4X`.1XvXlXcXAXHXSXeX^././.`._._.",
"BXkXgXgXAXAXZX<X^.`.[.].].).R.& % < h C.W.iXlXfXzXFXAXSXyXtXjXfXfXHXFXFXDXK.G.x w , % B 9X0X9X<XSXlXlXpX<X^.'./.`./._./.",
"-XSXkXkXDXSX<X,X0X{._.`.'.9X>X, & < x C.NXpXkXzXVXCXVXAXDXgXkXcXHXFXGXGXVXZXH.n r > , L.qX`.0X,X-XMXMX8X,X^./._._./.'./.",
"1XwXSXlXbX<X8X/.'._._.{.`.0X7X, @ % z S.sXkXkXZXVXCXFXFXHXzXzXzXGXGXVXVXFXDXD.V.y : % 7X).].`.0X,X8X9XE./.(.{./.'.`./.5X",
"7X7X8XvXW.4X5X_././././.].).>X> # 2 k k uXjXgXkXFXFXJXFXJXzXcXHXGXVXVXGXAXvXD.n e @ * 7X`.'./.`.0X0X`.'._.{._.{.{././.5X",
"9X7X9X^.0X_././._./././.'.`.7X, & & g d K.iXhXgXzXzXFXJXFXBXVXVXVXVXVXAXSXK.D.j w % * ,X0X'.`.`.'.'._._._.'.'.'.`.`.`.^.",
"`.`.[.`.[._._._.'./._./.'.`.4X* 1 @ f d A.dXjXkXgXgXBXFXGXGXVXGXVXVXAXDXA.H.b k 2 1 C 9X0X`.`.`.'./.'.'._./._.`.'.'.].[.",
"'.[.'.'.'.'._.'./.'.'._._.(.`.< & @ g h V.A.vXhXhXkXxXFXVXVXVXCXVXFXZXR.G.B.a d % # ).`.^.0X`.`.`.'./.^.[.`./.[.'.'.'.[.",
"`.'.[.'./.`.'./././.{._.`.].`., > 1 , z b C.sXjXvXgXgXxXGXCXCXCXGXHXMXA.H.l z f % 1 `.[.`.0X].].[.`.`.`.0X`.`.0X[.`.`.0X",
"`.`.`./.'.{.'._./._._._.].].)., > , , z l H.A.wXiXiXhXfXAXGXGXFXDXSXK.G.c l j d , @ 7XE.`.9X`.[./.3X$X$X2X2X`.0X0X4X'./.",
"0X'.'.'.'._.{.'._._._.[.[.9X,X* : > , v z x D.G.rXyXiXlXgXnXFXDXSXK.H.n a a h g 1 : Z Z Z W.0X5X+Xk.g.<.x.$X5X(.^.0X/.0X",
"`.'././._.'._._._._.{./.6X#X#X  + @ < v f h j j A.Z.P.iXiXhXkXjXuXL.V.j a j h r > : Z Z Z V @XXXs.4.;.-.a.z.Q.0X[.`./.`.",
"`.'./.'.'._._._.{._._.!.z.d.4.,.. + @ 1 , g g k j V.G.Z.sXiXvXyXH.D.j j s k t < : # Z B V M D :.&.8.w.r.4.z.&X`.`.'.0X`.",
"[.`.`.'.'.'._._._.(.'.&Xa.-.T E 2.o O $ @ y & w r h j A.L.8XdXK.D.b j f d w 2 # # $ |.M D f.%.] e.8.T &.g.XX2X`.`.[.'.`.",
"0X9X`.'.'.'.'./.0X_./.Y.<.! q.q.E 3.9 X $ # % * % , % < S G.G.G.j k f g t % # $ = X p.3.=.&.e.T T =.2.c. X6X,X9X9X`.^.`.",
"`.`.'.`.{.'./.Q.!.!.U.OXa.Q P w.w.T 3.#.X + + $ @ : : @ w p B.s e w y y @ O O X 6 2.:.~ ....P ! ! 9 9 M M V S A S.7X0X^.",
"[.`././.`./.&X$X#X+Xz.s.d.4.;.] w.r.%.2.4.9 X $ # # # # @ > 2 , 1 1 1 & $ X 4 2.=.X.e.| P U >.:.:.7.7.q M M A K.).0X^./.",
"{.'.`.5X`.5XoXk.s.p.5.*.4.:.R T _ w.u.&.Q *.f.o = $ # : 3 3 y B N 3 m = o f.3.R 9.N.L L Y 9.Q >.-.%.%.=.2.v. X2X4X`.`.`.",
"`.5X`.4X/.%Xd.:.u.r.N.M.r.w.w.^ P ] r.r.y.0.&.3.p.*XZ N Z Z N N N N V 9 0 3.{ r.{ W U [ q.q.W 9.q.r.r.y.0.:.g.z.2X`.'.'.",
"`.[.0X`.`.$Xd.&.r. .} M.M.w.r.r.! R T T ! W 9.T 4.s.M V Z Z Z Z Z V m.3.=.y.r.T -.>.:.4.4.*.*.Q R T R R ;.$.1.k.2X`.{.[.",
"`.[.[.`.`.3XXX<.-.! ;.&.%.*.4.f.5.5.5.4.-.~ [ y.8.:.g.c.R.S A A P.j.5.&.y.9.&.4.x.l.l.XXoXXXl.k.d.5.f.<.a.d.z.oX2X`.].[.",
"`.'.0X`.`./.$XXXd.<.s.k.v.s.j.z.j.XXXXx.<.4.4.4.:.5.g.XX&X4X4X6X$X+Xh.:.%.*.5.z.$XI.6X@X,X1X6X X Xc.z.*Xz.+X#X3X9X].].[.",
"`.`.[.`.`./.5X3X&X%X3X&X!.@X|.@X1X@X1X@X$XY.OXY.$X$XY.U.~.!././.~.$Xz.s.k.XX$X%XQ.5X5XE.7X>XbXBX|.xXnX|.%XU.5X/.`.].0X`.",
"'.`.`.`.`.5X/.^.`.[.0X[.0X8XbXmXaXmXSX-X`.'.~./._.{._.{./._./._.'.5X$X.X$X!./.`.`.^.^.5X7XMXhXfXBXFXZXnX7X`.'.`.`.`.`.`.",
"[.0X`.0X0X`.0X^.4X'.`.,X>XjXjXbXAXHXHXDX,X/._.'._.'.'.{._._./._.'./.5X3X5X/.`.'.].[.`.^.8XNXvXfXBXAXDXSX7X0X0X`.`.0X0X/.",
"`.[.`.`.`.`.^.0X0X(.[.9X>XbXlXkXHXFXFXZX1X'.`.'.`.`.'.'._._.'.'./.'.`.'.`.[./.`.].].`.`.7XtXMXgXzXFXDXaX7X[.^.5X0X`.`.'.",
"0X4X/.`.'.`.'.[.`.9X`.^.9X-XMXlXGXFXAX-X,X/.^.`.`.'.'._._._._.{.[.[.`.`.[.`.`.0X`.`._./.0X,XMXjXcXDX<X9X0X`.`./.4X`.`.'.",
"4X^.5X'.`.'.[.[.[.0X`.4X`.8X-XDXAXAXwX,X0X`.`.^._.'.`.'./._.'.`.[.`.'.'.[.`.4X^./.[./.'.^.4X<X-XSXaX7X[.[.`.^./.`./.`.[.",
"5X/.`.`.`.[.[.`.`.`.0X/.`.9X,X>XMX:X>X4X/.0X{.'.'.'.`.`.[.`.`./.0X[.`.`.`.4X`.4X`.'._.0X`.9X,X4X,X,XqX].`.`.0X`.`.5X'.[.",
"`.0X'.`.[.`.0X[.`.'./.0X`.`.`.0X>X>X9X^.`.0X_.'.0X`.[.'.`.`././.4X4X`.0X0X`.4X^.0X'.'.[.`.^.qX^./.`.].`.9X0X`.`./.'.'.[."
};
