/* XPM */
static char *wall4[] = {
/* columns rows colors chars-per-pixel */
"60 60 250 2 ",
"   c #3F1B29",
".  c #5D0D1D",
"X  c #5D111E",
"o  c #54141E",
"O  c #4C161F",
"+  c #630C1C",
"@  c #680B15",
"#  c #67101A",
"$  c #5C0E23",
"%  c #5C0E2A",
"&  c #540F28",
"*  c #4D1524",
"=  c #4C1A25",
"-  c #4C152B",
";  c #461A2A",
":  c #4A1A2A",
">  c #441628",
",  c #541424",
"<  c #5B1224",
"1  c #54132B",
"2  c #5B122A",
"3  c #551B29",
"4  c #4D1932",
"5  c #581531",
"6  c #5C0C31",
"7  c #630C23",
"8  c #660C29",
"9  c #631325",
"0  c #66172B",
"q  c #691C36",
"w  c #711531",
"e  c #5D2337",
"r  c #68233C",
"t  c #78273A",
"y  c #782B44",
"u  c #74324A",
"i  c #872B3A",
"p  c #832B46",
"a  c #8B3649",
"s  c #95374D",
"d  c #893C58",
"f  c #97375A",
"g  c #8E2E52",
"h  c #AC3D6C",
"j  c #A63D6A",
"k  c #B33C6E",
"l  c #B73A6E",
"z  c #AD3E71",
"x  c #B43C72",
"c  c #B83D76",
"v  c #A03748",
"b  c #964457",
"n  c #874159",
"m  c #A74E59",
"M  c #9D466C",
"N  c #9C4A6D",
"B  c #944C6B",
"V  c #8A556C",
"C  c #95536B",
"Z  c #9D4A73",
"A  c #984B77",
"S  c #885578",
"D  c #985879",
"F  c #864F76",
"G  c #A4456C",
"H  c #AB426D",
"J  c #A34A6C",
"K  c #A74966",
"L  c #B3416D",
"P  c #B64A6A",
"I  c #AA5567",
"U  c #B6566B",
"Y  c #A44472",
"T  c #AB4272",
"R  c #A44972",
"E  c #A94B78",
"W  c #B34273",
"Q  c #B84779",
"!  c #A85A77",
"~  c #B75878",
"^  c #A9647B",
"/  c #B86579",
"(  c #B3626B",
")  c #976179",
"_  c #C45978",
"`  c #CC537F",
"'  c #C76679",
"]  c #D36C7C",
"[  c #765689",
"{  c #5B6E92",
"}  c #706B97",
"|  c #6D73AA",
" . c #7B7BBA",
".. c #6D73AF",
"X. c #537CB2",
"o. c #777DC9",
"O. c #6F7FD1",
"+. c #5F7DC5",
"@. c #915287",
"#. c #B85586",
"$. c #8F7096",
"%. c #B77389",
"&. c #B26D8D",
"*. c #9579B9",
"=. c #8776AD",
"-. c #B071B3",
";. c #C65686",
":. c #D15C8F",
">. c #C9578C",
",. c #C66783",
"<. c #D5698B",
"1. c #CB788A",
"2. c #D4768D",
"3. c #CB7A97",
"4. c #D87996",
"5. c #DB6396",
"6. c #E77A9A",
"7. c #E8719C",
"8. c #DB77A6",
"9. c #E86EA4",
"0. c #ED7DAC",
"q. c #E878A6",
"w. c #F57DAD",
"e. c #FA7DAE",
"r. c #F57CA5",
"t. c #EE7DB2",
"y. c #F67EB3",
"u. c #F97DB3",
"i. c #F97CB9",
"p. c #F67BB7",
"a. c #857CC5",
"s. c #4F83AD",
"d. c #7086B7",
"f. c #668099",
"g. c #3E86DB",
"h. c #598CDA",
"j. c #528ED3",
"k. c #6B83CC",
"l. c #7684CB",
"z. c #6887D8",
"x. c #7784D2",
"c. c #578AE5",
"v. c #5492E4",
"b. c #4E8FE5",
"n. c #6B96E2",
"m. c #73A8EF",
"M. c #B18891",
"N. c #9186B6",
"B. c #B889A2",
"V. c #AA8AB9",
"C. c #B2ACBA",
"Z. c #D78387",
"A. c #CA829A",
"S. c #D78599",
"D. c #E8889B",
"F. c #F38499",
"G. c #DC8CAC",
"H. c #DB89A3",
"J. c #DA96A9",
"K. c #D48ABE",
"L. c #DC8ABB",
"P. c #DC87B8",
"I. c #CA93BA",
"U. c #CE8DB5",
"Y. c #E585A3",
"T. c #EC84A3",
"R. c #E38CA3",
"E. c #E684AC",
"W. c #EC84AC",
"Q. c #E38CAB",
"!. c #EB8BAC",
"~. c #EA8AA5",
"^. c #F283A5",
"/. c #F383AC",
"(. c #F982AD",
"). c #F489A8",
"_. c #E897A9",
"`. c #F393A9",
"'. c #E585B4",
"]. c #EC84B3",
"[. c #E585BC",
"{. c #EB84BB",
"}. c #E789B7",
"|. c #F482B3",
" X c #FA81B3",
".X c #F48BB3",
"XX c #F382BA",
"oX c #FB85B8",
"OX c #E997B6",
"+X c #FA98B9",
"@X c #E8A4BB",
"#X c #FBA4BB",
"$X c #948ECD",
"%X c #A697D7",
"&X c #B996D8",
"*X c #B294CB",
"=X c #9AA8D8",
"-X c #ADA7D6",
";X c #859AE3",
":X c #9A99E5",
">X c #B198E4",
",X c #9ABEFC",
"<X c #8CB1EF",
"1X c #BCAAE8",
"2X c #ABB5EC",
"3X c #B8B5EA",
"4X c #ABBAF4",
"5X c #A6BBFA",
"6X c #B3B6F6",
"7X c #B3AFED",
"8X c #CB8DC7",
"9X c #DC86C2",
"0X c #DB89C2",
"qX c #D58BC7",
"wX c #C993C8",
"eX c #D495C8",
"rX c #C18ED2",
"tX c #C894D6",
"yX c #D393D2",
"uX c #E286C3",
"iX c #E389C5",
"pX c #FC9AC5",
"aX c #EB9CCC",
"sX c #D9A6C8",
"dX c #D0A9D7",
"fX c #E9A9C6",
"gX c #FCA8C7",
"hX c #FDB4C9",
"jX c #FFA9D1",
"kX c #EBBDD4",
"lX c #FAB9D5",
"zX c #CAABE5",
"xX c #D2B3EB",
"cX c #EEB2E4",
"vX c #89C5FE",
"bX c #97C2FE",
"nX c #A1C2FF",
"mX c #EBC3D5",
"MX c #F9C8DC",
"NX c #DDD6FF",
"BX c #FCD4E9",
"VX c #FFDBF6",
"CX c #F6CAEE",
"ZX c #FFE6FE",
"AX c #FFEBFF",
"SX c #FFE4F5",
"DX c #FFF4FF",
"FX c #F4FDFF",
"GX c #FFF9FF",
"HX c #EFF5FF",
/* pixels */
"y.XXy.y.y.u.i.u.i.i.u.u.y.y.y.u.y.y. Xu.y.y.u.i.i.XXp.|.0.w.i.i.i.i.y.w.(.e.|.y.y.p.i. Xu.u.i.y.i.u.i.u.u.|.w.|.y.u.u.u.",
"y.y.y.y.u.u.u.u.p.u.u.u.y.|.y.u.y.u.y. Xt.{.9X9X9XqX8XU.K.qXqXqXqXqXqX[.].y. Xy.y.u.y.y.e.u.u.y. Xu.u.u.u.e.w.y.u.u.u.u.",
"i.u.i.u.u.e.(.|.u.u.u.u.e./.e.u.u.y.e.p.9XrX>Xa.$X:Xl.x.$X:Xk.z.x.;X4XxXwX}.{.|.|.e.u.u.e.e.w.|. Xp.y.y. Xy.u. Xy.u.u.u.",
"u.u.u.u.u.(.r.e.e.u.u.e.e. Xu.u.u.p.uXqX&Xa.O.o.x.6X6X..| ....+.k.5X2X3XzXcX0X[.|.u.|.e.u.u.(.w.y.y. Xy.w.e.y.e.u.u.u.u.",
"e.u.u.u.y.y.e.w.w.y.u.i.u.p.p.p.y.uX&Xo.O.l.*X=.=.zX8X0X9X9XqX8XqXqXL.qXdXzX&XyX[.u.u.e.u.u.w.e. Xy.y.u.u.u.u.u.u.u.y.y.",
"e.u.u.y.u. Xu.u.u.u.y.u.u.y.t.uX[.8X$X;X;X .V.K.eXqX|.u.9.5. XL P 5.0.q.qXdXzXcXuXu.e.e.u.u.u.e.y.y.y.y.u.u.u.u.u.u.y.u.",
"e.e. Xy.p.p.|.y.u.p.y.y.y.{.t.8X&X=.2X4XzX8XP.'.#.8.Q L l x k k l l l x Y @.[.[.i.u.e.e.e.u.u.u.y.y.y.y.u.u.u.i.u.y.u.y.",
"u.u.u.|.i.y.y. Xi.u.u.XXuX8X*X$X=X3X3X1XqX'._ L z z k l L k x x k x Q W j z T x u.e.u.w.u.u.u.u.u.i.u.u.y.u.u.u.u.u.y.y.",
"u.u.u.u.u.y.p.y.w.u.u.uX>X$XO.z.3XzX8XuX>.>.h k x x x z x x l x W z R fXkXkX&.j L w.|.y.oXp.p.y.u.e.u.u.i.y.y.y.y.u.u.u.",
"y.y.y.y.u.i.y. X/.].uXtXo.h.,X5XxXqX{.>.W L ` h x x c x l l l z h W G fXkXkXlX3.E H q.y.i.y.i.u.u.e.u.u.y.y.y. Xy.y.w.u.",
"(.y.y.u.u.u.y.u.i.uX&XO.z.nX7XtX0X].W x L L z x c c z x x l l x l L k H Y ! lXkXhX3.h 9.p.u.u.e.e.u.e.u.u.y. Xy.w.u.u.e.",
"u.y. Xi.y.u.u.|.[.rXO.z.,X6XtXP.q.L 4.~ P l x x c c x x k l l l l l x x x G B A.H.Z Q w.e.e././.W./.e.e. Xi.t.p.y.y.u.u.",
"u.e. Xy.i.u.u.[.&Xx.h.m.zXtXiXE.R Z mXkXH k l c c c l k c l l x l h l x h q.L 4.E.!.Q.E.W.W./ ! gXq.w. Xu.y.w.y.u.u.u.u.",
"e.u.y.y.i.u.w.qXl.v.,X5XtXuX Xh Z fXmXlXj Q c l h h k k x h h ;.7././.q.pXW.(.(.!.8.q 4.I + $ 2 < G./.w.u.u.i.w.y.u.e.u.",
"e.u.u.u.i.w.W.eXk.m.nX1X9Xt.Q J sXmX^ G j z l L K K K 7.jX XpXy.(.).'.'.lXR.' 0 2 2 0 / b @ #X1., 0 ]. Xi.u.u.p.y.e.u.(.",
"y.u.y.w.u.|.0XxXk.,X3XwXt.:.j ! mXmXR L H H L L #XBX#XE.).W.W.E.Y.K 8 0 w hXb + %.@XQ.R.i 0 D.R.1 y W.u.u.e.i.u.u.u. X X",
"e.u.u.w. X[.1X| | 3XyXuX{.W G hXmXsXN K H jXVXlX+X0.].W.W.^.T.,.$ < 0 p / gXt 3 J.#X_.`.0 9 G.r & pX/.w.u.u.u.e.u.u. X|.",
"u.u.w.y.{.8Xd...} wXiX{.t.T G A.@XC E lX).).R.Q.E.'.].p ,.hX`.. o A.hXD.~.`.r , 3 X <.T.C 3 2 2 d Q.W.u.p.p.u.u.u.u./.|.",
"u.e.i.{.8X$Xx...wX!.t.p.5.z z Q R +X|.|.).).D._.p 0 % % 9 D./ # 6.D.@XS.1._.= = / ~..XE.#., S.9 2 3.!.w.y.u.i.u.u.u.e.y.",
"i.e.i.[.&Xo.n.4XL.w.y.p.p.9.9.w.r.(.(.oX] # D.( < ^ H.q X 2.I @ 6.~.9 0 9 _.3 , hXY.].].d p Y.4.% 0 j w.u.u.w.u.u.u.y.u.",
"p.i.p.uX$Xx.5X6X0Xw./.W.].W.y.(.^.` (.r.~ @ Z.( X S.D.t 0 _.m # 6.F.`.s X J.o o ( U s ).s H .X0.].q.oX/.y.y.y.i.u.u.w.y.",
"y.p.i.uX%X;X5X1X0XW.gXgX!.Y.pX^._ # ^.^.' # Z.t X ( ! 9 R._.' @ _ ^.`.s X _.b w 9 + _ D.^.F.W.|.W.W.W./.|. X Xy.u.u.y.|.",
"|.y.u.uX$X4X3XwX'.W.Q.t 7 7 y D.U # (.r.' @ Z.i o o , 2 3.`.F.i 8 S.b < p ~.Y.!.#X~.(./.#X1.d 5 1 % f ].w.u.u.u.u.y./.y.",
"w.y.i.9Xl.5XzX8X'.0.$ o Z.K < A.I @ /./.' @ Z.( o u u % 8 W.r.F.s 8 q 2.#X~./.(./././.6.p + < , 1 2 % f oXu.i.y.y.|.w.y.",
"w. Xp.8Xz.c.$XK.].g 7 R.H.t 8 @Xb 7 .XoX' # Z.m X S.gX<.~ q.y.w.W.pX/.W.~.T.6.<.(.r.] s + X , < g f f q.y.u.y.p.y.y.u.w.",
"y. X[.tXc.c.$XL.W.U 7 %.H.8 t J.S.7 !.R.( # D.( + D././././.|.W.W.W.w./.`.7 8 q.r.^.i @ + I _.`.T.).W.W./.u.u.u.u.u.e.u.",
"i.t.L.1Xb.c.xXG.).U o O 1 % t R.b . / S., < ~.T.D..X/./.D._./ 9 1.E.|./._ 7 % G.T.I $ < a hXE.W.)..XgXE.w.e.u.u.u.y.u.u.",
"u.].wX=.b.c.dX!.D._ X ^ OXn + ' ' + + $ 2 %.W./.0./.w.W.~.0 o o < OX/.(.! , 1 ^ Q.8 = 3 1.F./.|._ % 2 t |.u.u.y.u.u.w./.",
"i.XXwX..b.c.yXp.(._ + A.Y./ 9 4.+X6.P Y.E.gX0.pXq.#.0.|.R.o * * o b `.D.n : : = _.3 ; - _.F.~.8 % 1 - % 0.u. Xy.u.y.u.u.",
"i.[.eX-Xb.c.yXp.r.<.+ ( I 7 t gX/.w.^.T.}..XW.+Xg 8 E.E.J., : = O 0 U +Xe > ; = J., : : D.F.).E %.* : 1 .X|.y.u.y.u.y.e.",
"u.{.eX..b.c.tXt.r.7.+ 9 8 U /.w. Xw./.p 2 d ].W.5 4 y G.G.1 - : : , r / - : ; 3 OX% - 3 ] F./.'.Y.$ - 1 ].w.y.y.y.u.u.y.",
"w.}.sX| b.c.&Xt.e.] s 1.R.Y.W.|.|.].K , 5 q ].].1 : 5 fXG.5 - 4 - , o < : ; ; r G.H.1 < m `.+X.X,.2 2 u +X.Xw.|.u.e.e.e.",
" X].sX..b.h.%XL.|.pXT.#X#XD.q !..XE.1 1 5 H.|.W.4 > 1 G.P.6 4 4 3.0 & * > > > 5 Q.].% $ 0 a b t < , 9 2.+X|.|.w.u.e.e.e.",
"y.].L.&Xj.j.N.I.{.w.).6.7 t 2 OX_.r - 4 6 ].0.].r > 1 OXG.r > 4 Q.R.t , = : : r {./.K . $ < + X , r / #XW.].u. X Xu.e.e.",
"i.{.}.dXd.,Xd.wX'.|.^.2.3 = , hX/ = 3 1 {.y.].'.4 4 q G.G.* : 3 !.^.6.s 2 - ; 5 ]././.4.8 % 2 < , @XOXK 0.y.y.i.i.u.u.i.",
"i.y.].eXd.bX4XNXL.w.^.2.1 ; = M.= O O ^ ].y.].gX6 4 5 J.J., 3 5 W.(.F.<.t 1 3 8 .Xw.w./.}.G.OX3.B ZXZXJ x  Xu.y.i.u.i.w.",
"w.|.oXqX$X+.,X3XuX(.r.2.-   ; = = = 3 lXE./.W.jX- 4 : @XJ.3 - 1 +Xw.(.(.4.t f .X/.|. Xy.].].;.J B AXZXZ z x ;.<.` p.y.|.",
"(.w.y.9X>Xk.,X5XeXr.r.6.: ; > = = = o A.gXW.].OX4 > = MXJ., 4 q E.(.w.y.W.t./.T.W.7.L k x x h G B AXAXV Y z j J j ;.0.|.",
"w.e.w.[.&Xo.c.,XxX[./.4.* > = e = = = , 2.+X/.].r 4 & Q.G.< 8 !./.(.0.y.|.jXjX~.N N Y x h x Z N B SXDX&.&.AXAXAXZXJ L  X",
"e.e.u.{.8X .h.bXzXqX'.R., ; = J.C , : - < S.W.Q.r 6 3.!..Xq.].W./. XjXE Y H K K ZXZX#.;.R Z ZXBXV SXDX) B.AXmXAXZXM h u.",
"u.u.u.].}.&Xz.c.4XwXE.W.* 4 5 OXQ.q - 4 4 1 #X+Xs U E.W.y.w.y.:.x z Z B R H L H ZXZXD AXDXDXDXDXGXDXAXV B.mXB E j #.y.y.",
"u.i.u.|.].yXz.m.bXV.P.H.1 4 6 Q.E.jX5 4 4 1 hX`.#X+XpX|.u.l c h Y N ZXAXfXR k j C V V AXDXDXB.DXGXSXZXF VXAXE T x ;.y.y.",
"i.u.u.u.y.qX;Xh.bX=XU.A.> > 1 Q.W..XjX5 6 Q.W./.(.w.(.k k x x H &.AXDXDXAXVXK N DXDXV AXAXS G.N V AXVXV sXDXZXB H ;.9.u.",
"u.i. Xu.u.0XNXl.bX5X$.M.- - 0 +X(.w.!..XQ.W.|.9.` l k k x x k J SXDXDXM.DXDXK M DXGXV AXAXB G G V DXDXS S D VXVXG.G h i.",
"u.e.w.u.y.[.8X$Xn.bX2XV.4 0 _ ^.w.e.].|.0.;.h l j x x x x x k N GXGXMXV GXDXN M DXDXV ZXAXC G Z S DXFXN.@.A N AXDXBXT i.",
"u.i.y.w.y. X{.wXl.j.<X3X$.kX!.(. Xy.5.x c x l z x x l k x x k M DXGXV C GXAXM M DXDXV ZXAXD E Z S DXFX=.U.R Y B DXDXz Q ",
"y.u.p.u.u.i.t.9XrX*.$XbX;X=.eX'.y.y.9.l x k z x x x x c k l x Y AXGXBXDXGXDXM N DXDXV lXAXV A A S AXDXI.[.t.:.Z SXAXY c ",
"u.w.i.w.u.u. X{.9XwXd.5XbXbXN.wX0X[.y. Xu.x c x c l x x c k x Y ! AXDXGXGXDXR Y DXDXB VXAXS @.@.S AXZX}.].|.H Z DXDXZ c ",
"y.y.y.u.e.u.y.p.{.L.tX*.v.vX,X2X*XI.K.].t.i.XX9.7.k x l x x x W Y Y B V GXDX#.Y DXAXZ E B @.} *.$.I.[.|.t.G Z fXDXDXN L ",
"y.y.u.u.e.e.u.y.y.XXuXrXx.h.m.bX5X$XdXkX[.XX{.XX/.|.w.y.c x x h ;.E N AXGXDXR R -.S F @.@.CXNXd.N.I.U.}.Z N VXAXDXVXR L ",
"u.e.u.u.u.e.e.w.i.e.p.uXrXo.c.b.vXbX=X} qXuXK.[.}.E.|.w.p.p.u.W G aXAXDXDXDXE Z S [ 2X4X6X} DXDXGXDXDXDXDXDXZXAXfXN j  X",
"e.u.u.y.u.u.e.(.e.u.i.p.uXtXz.c.j.m.vXnX*.8XV.V.cXI.K.L.aX[.E T %.DXDXC.GXVXM @.N.4X;X<X .[ S AXDXDXDXDXDXAX^ J Y Y y.XX",
"u.u.y.XXi.i.u.y.e.e.u.i.p.9X&Xa.z.v.b.vXbX5X2X4X4X2X{ | N.$.D %.FXFXf.{ FXDXS @.5X,Xc.k.a.-.M G G Y G G M G H W q.w.u.w.",
"u.u.y.p.i.i.y.y.i.e.u.u.i.p.9XtX:Xk.h.h.n.vXs.vXvXvX,X<X1X[ CXGX=Xf.s.s.FXGX@.*.o.z.o.>XyX9Xt.y.9.e.0.q.w.r.w.u.u.u.i.u.",
"u.u.y.p.i.i.u.y.y.u.u.u.u.i.].[.9XyX1Xa.k.h.b.g.g.vXvX,X@.F DX=Xs.j.b.j.FXDXF @.$.&XqX9Xp.p.u.e.i.w.y.y. Xu.u.i.u.u.u. X",
"e.e.y.u.y.u.u.y.u.u.u.u.e.y.u.u.y.t.0XtX>X:Xx.v.h.z.h.o.@.A GX{ k.j.v.s.GXCXF aXqXL.XXi.y. Xe.u.y.u.y.y.y.y.u.u.u.u.u.u.",
"e.e.e.u.y.y. Xy.y.|.y.|.y.y.u.u.u.y.{.uXL.0XqXtX1Xo.o.*.-.F ZXFXd.d.=XFXZXA Y [.[.{.p.i.u.u.u.e.e.y.y.u.e.u.y.u.y.u.u.y.",
"e.e.u.u.y.y.y.y. Xu.|.y.u.e.u.u.u.u.i.i.y.y.i.{.9XwXrX&XyX@.B.AXFXGXGXDXZ z 9.p. Xp.u.u.u.u.u.u.u.u.y.e.y.u.u.u.u.y.u.y.",
"y.u.u.u.y.|.y.y.u.u.y.p.u.u.e.e.u.i.i.u.|.|.y.].{.'.[.[.{.Q T #.@.CXhXJ H q./.u.e.u.u.u.u.u.u.u.u.y.p.u.y.u.u.u.u.y.u.u.",
"y.u.u.u.y.|.y.y.e.i.i.i.u.e.e.e.e.u.u.y.w.].p.y. X(.oXoXy. Xc ;.Q ~ T H Q w. Xe.e.u.i.p.u.u.u.u.i.u.y.y.y.u.u.u.i.u.u.u."
};
