/* XPM */
static char *wall2[] = {
/* columns rows colors chars-per-pixel */
"60 60 255 2 ",
"   c #731E18",
".  c #542D16",
"X  c #6D2504",
"o  c #6B2317",
"O  c #722214",
"+  c #722709",
"@  c #6B1D29",
"#  c #731C27",
"$  c #6D153C",
"%  c #6C1A3D",
"&  c #6A1C33",
"*  c #73153D",
"=  c #7A123E",
"-  c #72193D",
";  c #741B35",
":  c #790F3E",
">  c #63242A",
",  c #682235",
"<  c #7B293A",
"1  c #7C3330",
"2  c #592A22",
"3  c #63461E",
"4  c #794536",
"5  c #6B472F",
"6  c #7E6735",
"7  c #6E1A42",
"8  c #751641",
"9  c #7B1542",
"0  c #731A42",
"q  c #791A45",
"w  c #7B0F40",
"e  c #7C2549",
"r  c #7A3343",
"t  c #765C45",
"y  c #933C19",
"u  c #86153E",
"i  c #893731",
"p  c #A42E2E",
"a  c #801819",
"s  c #8F5334",
"d  c #A35533",
"f  c #9F662F",
"g  c #821847",
"h  c #981D52",
"j  c #8A1446",
"k  c #A71B59",
"l  c #B51D5E",
"z  c #85294C",
"x  c #94274B",
"c  c #853447",
"v  c #8B2553",
"b  c #852B53",
"n  c #8B2B54",
"m  c #892956",
"M  c #932455",
"N  c #922955",
"B  c #992758",
"V  c #8B3357",
"C  c #97365C",
"Z  c #913547",
"A  c #A6255A",
"S  c #B42758",
"D  c #A53151",
"F  c #B31C63",
"G  c #993862",
"H  c #A83C6B",
"J  c #AA3E72",
"K  c #BA3871",
"L  c #B12E67",
"P  c #C53875",
"I  c #C93470",
"U  c #C21E63",
"Y  c #8C5947",
"T  c #94574D",
"R  c #9B4B59",
"E  c #954F52",
"W  c #A54B57",
"Q  c #B95355",
"!  c #A9524F",
"~  c #987D57",
"^  c #906F4C",
"/  c #A4765B",
"(  c #AF6F4C",
")  c #9E4766",
"_  c #9E5661",
"`  c #A64568",
"'  c #A94673",
"]  c #B44E71",
"[  c #B66A67",
"{  c #AF716A",
"}  c #9C7A61",
"|  c #D55C5D",
" . c #CD734D",
".. c #E66A55",
"X. c #CF4D77",
"o. c #E75978",
"O. c #E74E7B",
"+. c #D36377",
"@. c #CB6B6F",
"#. c #E86665",
"$. c #7E8E3A",
"%. c #7C9337",
"&. c #7F8F44",
"*. c #848D3D",
"=. c #85953E",
"-. c #938634",
";. c #AE8420",
":. c #EBBE36",
">. c #F4BC38",
",. c #CC8D3D",
"<. c #EEC238",
"1. c #F1C133",
"2. c #888945",
"3. c #958354",
"4. c #91884D",
"5. c #9AB153",
"6. c #AD8F68",
"7. c #AAAB60",
"8. c #D2914F",
"9. c #F68C59",
"0. c #ECBA48",
"q. c #F3B64C",
"w. c #F4B949",
"e. c #ECB856",
"r. c #F7B657",
"t. c #F8AB56",
"y. c #D28672",
"u. c #F09372",
"i. c #C6B17D",
"p. c #FDAB67",
"a. c #ECB668",
"s. c #F6B368",
"d. c #F9A877",
"f. c #F9B678",
"g. c #EDAD71",
"h. c #C9B74B",
"j. c #B6CD6C",
"k. c #BEE96E",
"l. c #F5C54B",
"z. c #F8CA59",
"x. c #EEC64D",
"c. c #C9DB7C",
"v. c #D0D97C",
"b. c #F5CC6B",
"n. c #F9CB6B",
"m. c #F7CA65",
"M. c #EEC975",
"N. c #F4CB74",
"B. c #F3CB79",
"V. c #F9C677",
"C. c #F3CC69",
"Z. c #C1EB6E",
"A. c #C5E57B",
"S. c #CAE37C",
"D. c #C6E777",
"F. c #D2E17E",
"G. c #ED3D8B",
"H. c #EC3D86",
"J. c #F43C8D",
"K. c #FA3A8D",
"L. c #F8378B",
"P. c #FA3C91",
"I. c #F53B90",
"U. c #EF3D91",
"Y. c #BB5282",
"T. c #D94787",
"R. c #CC5B87",
"E. c #D35D8D",
"W. c #DB598B",
"Q. c #DD5B92",
"!. c #D85B92",
"~. c #CE568C",
"^. c #E5448B",
"/. c #EA438C",
"(. c #E54588",
"). c #F1428D",
"_. c #E6568C",
"`. c #EB4B92",
"'. c #F84896",
"]. c #E45592",
"[. c #E95795",
"{. c #F25397",
"}. c #F15585",
"|. c #D66695",
" X c #D06891",
".X c #FE58A6",
"XX c #FF58AC",
"oX c #FB69AA",
"OX c #EA7BAA",
"+X c #F47CAD",
"@X c #FA7CAE",
"#X c #FB72AB",
"$X c #FF6CB4",
"%X c #FF75B4",
"&X c #F67DB3",
"*X c #F97DB3",
"=X c #FB7AB9",
"-X c #EC7FB1",
";X c #E57096",
":X c #CF8C94",
">X c #E88A9A",
",X c #F2859B",
"<X c #EB938E",
"1X c #D9B190",
"2X c #FEBC94",
"3X c #F8B28C",
"4X c #EA85A9",
"5X c #F683AA",
"6X c #EE82B1",
"7X c #E784B2",
"8X c #F382B3",
"9X c #FB82B5",
"0X c #FF85BB",
"qX c #FC89BC",
"wX c #F588B9",
"eX c #EB98B2",
"rX c #DCB3BE",
"tX c #E8A9BD",
"yX c #F0B3AE",
"uX c #DF93A0",
"iX c #CCD983",
"pX c #D4DB8B",
"aX c #D7DB88",
"sX c #DCD596",
"dX c #D8CB8D",
"fX c #E3D397",
"gX c #F0C890",
"hX c #CAE383",
"jX c #D1E282",
"kX c #ECC9A5",
"lX c #DED2A0",
"zX c #FF83C1",
"xX c #FE99C7",
"cX c #DDB3C2",
"vX c #ECABC3",
"bX c #ECA7C5",
"nX c #F5A8C7",
"mX c #E6B6C4",
"MX c #F7B4CB",
"NX c #FFB8D5",
"BX c #FFA9D3",
"VX c #FAC8D9",
"CX c #E8C4C6",
"ZX c #FFCAE9",
"AX c #FFD7EB",
"SX c #FFDDF4",
"DX c #FFDCFC",
"FX c #FFD4F8",
"GX c #FFE7ED",
"HX c #FFE4F3",
"JX c #FFEBF4",
"KX c #FFE4FB",
"LX c #FFECFA",
"PX c #FFF3F4",
"IX c #FFF3FA",
/* pixels */
"&X=X&X*X&X*X@X@X*X&X&X&X*X&X&X*X=X-X*X&X%X%X%X*X%X@X&X-X-X=X-X&X-X+X-X@X9X*X&X*X*X&X*X*X&X&X&X*X&X&X*X=X&X&X*X&X&X*X*X*X",
"&X8X*X8X*X*X%X@X&X*X&X*X*X*X9X&X&X=X*X%X].].W.].].#X+X&X=X&X@X+X&X+X*X+X+X&X&X*X&X*X%X*X&X&X&X&X=X&X*X*X*X*X*X8X&X*X*X*X",
"*X8X@X&X*X*X*X*X*X8X*X*X*X*X@X&X&X%X%X].E.|.OXE.].[.oX@X*X&X=X&X*X*X*X&X&X&X&X&X*X&X*X*X*X@X9X*X8X*X&X&X*X*X*X*X*X*X&X*X",
"@X&X*X@X*X*X*X&X-X8X&X=X*X*X8X@X*X%X{.].BXSXHXDXFXQ.].%X@X8X&X-XOXOX8X6X-X8X&X&X&X&X9X8X=X*X*X&X*X*X*X*X&X*X*X*X*X*X8X&X",
"@X5X*X8X&X*X&X&X*X8X*X&X*X@X*X*X@X#X].E.LXLXPXSXKXFX[.T.u = * * $ q % & 7 % 0 G -X8X&X&X&X&X*X&X*X*X*X&X&X*X&X*X8X*X*X*X",
"@X@X*X&X*X8X&X&X*X&X*X*X8X*X*X*X#X_.E.DXGXPXrXIXPXHX|.].B 9 - % % % % % 7 7 7 8 v 7X6X8X&X*X&X9X*X*X&X*X8X&X*X*X%X*X*X*X",
"*X&X&X*X*X&X8X&X*X=X*X*X*X*X*X%X{.[.BXKXJXmXrXGXPXPXKXR.Q.K n 0 0 % 7 $ & 7 0 7 $ q *  X-X+X8X&X*X*X&X&X&X&X&X*X*X*X*X*X",
"*X*X=X*X*X&X8X&X*X*X*X*X*X%X%X=X{.].KXLXvXtXVXJXPXPXHXKXW.].B M m N v M B M M N M : 9 * 9 = ;X7X*X*X*X*X8X8X&X*X*X*X*X*X",
"&X*X=X&X*X&X*X@X*X*X*X*X%XoX{.[.[.-XKXKXvXnXDXVXmXVXPXJXDX!.Q.T.T.^.^.^.^.^.H.^.^.k B w 8 8 0 7X8X&X&X*X&X&X*X*X&X&X*X*X",
"=X9X&X8X+X0X+X*X*X@X*X%X{.{.].T.OXxXbXNXnXDXnXbXbXKXIXJXKXE.{.XXXXXX.XP.P.I.K.J.G./.T.B 9 7 7 0 Y.6X&X8X*X*X*X&X&X*X&X*X",
"&X&X&X*X8X+X&X&X*X*X%X#X`.].xXnXKXVXvXnXNXnXnXNXNXvXmXLXDXE.`.L.J.I.K.K.L.K.P.U./.H.^.(.h m 0 8 q C 8X&X*X*X*X&X8X&X8X&X",
"*X*X*X*X%X%XOX+X+X#X].].[.xXxXnXGXGXKXbXbXNXMXtXtXtXVXIXFX;X'.K.K.I.K.J.I.J./.%X%X%XJ.^.T.B b G - 9 6X-X9X*X*X*X&X&X8X&X",
"*X&X*X%X{.}.Q.E.R.E. XE.wXnXnXKXPXPXPXPXnXnXAXCXPXGXPXKXE.'.'.L.J.{.=X=X%XoX%X%X%X$XH.H.P B B b e $ 9 6X&X&X*X&X&X8X8X&X",
"&X@X%X]._.].ZXZXFXAXDXDXZXnXnXSXPXPXPXPXMXBXKXHXHXJXKXZX[.K.K.K.K.`.%X=X%X%X%X=X=X].(.(.T.K A N b 0 8 w 8X&X=X&X*X*X*X&X",
"&X=X%XW.xXLXJXIXJXHXKXNXKXbXnXvXGXPXPXPXAX X].].]._.(./.G.K.K.K.K.).G./.^.oX$X=X%X%X%X%X%X[.T.P M 7 0 8 G -X-X&X*X*X*X*X",
"=X=XoXQ.AXLXIXIXLXGXtXtXZXbXtXbXCXJXLXKXFXQ.`.'.'.J.K.L.L.K.K.K.'.XXK.H.J.J.G.^.^..X=X%X=X$XH.^.K N z 8 8 |.&X&X*X*X%X*X",
"9X%X%X].:XLXIXIXvXvXvXAXbXbXAXvXnXDX9X].T.(./.I.L.K.P.L.K.K.P.K.P.P..X$X$X'.U.U.U.J.G.)..X.XH.)./.K M V 0 8 8X&X*X*X*X%X",
"*X*X%XE.DXLXIXcXvXnXKXvXbXSXLXKX X].`.`.F ^.T.l U.U.G.).J.H.J.I.K.U.G.^.H.J.U.XX.XP.I.I.U.U.P.'.'.^.x n * 0 g 8X9X*X*X@X",
"*X*X%XW.ZXJXJXcXGXHXvXtXKXvXrXKX!.].T.A k T.B M ~.k P S T.k I ^././.`.I ).I.I.I.L.L.K.K.I.L.L.K.P.'.P M m 0 8 -X&X&X@X@X",
"9X%X%XE.NXGXPXPXLXrXvXAXMXvXLXAX!.F K h B X.x n v M B M M M K k k T.A k ^././.U.).H.(./.J.J.P.L.G.).T.h N 0 * 7X&X5X8X&X",
"*X*X%X|.;XKXPXPXLXrXrXLXbXbXHXMX!.h B x N v m n z n n v b m n v M M x B A h B M x h h L T./.(.(.G.H.^.k M $ - 7X8X@X@X+X",
"*X&X*X9XE.nXJXIXAXrXPXJXvXMXLXeXE.A z V n m e z z q z 0 8 z b e b z ` b V V b e b m m N B h h k k ^.].T.J e 7 * -X*X*X*X",
"*X*X*X&X[.BXHXJXPXPXPXPXcXZXLXAX|.h * @ - $ $ $ C C m b b C G ) q $ * e % % % 7 q z n m M M n v N M v M b b 7 8 Y.-X&X*X",
"*X&X&X*X*XE.R.HXJXJXLXHXKXDXSX@.+.  i y.s o o i         o O     o o o o o > > > > # @ @ ; , < i c z < < @ ; & % 9 6X*X8X",
"%X*X&X=X*XT.W.E.4XFXDX;XQ.[.o.#...r.w.w.q.e.r.z.r.r.q.w.q.0.q.w.w.q.e.e.e.a.M.a.a.g.f 1 o o o X X X + X X X o # ;X6X8X&X",
"*X*X*X*X&X5X,X;X+. X+.+.o.o.#.u.s.r.>.1.1.<.:.:.<.<.<.<.<.<.:.>.1.<.l.l.z.z.z.z.m.m.B.2XgX2X2Xf.g.g.g.a.s.s.3XO g -X&X9X",
"*X*X*X+X5X,X2XgX2Xu.y.d.3Xp.s.gX3X3Xs.r.<.l.m.b.M.b.b.C.C.C.n.n.b.b.n.n.z.z.z.z.C.C.N.B.B.gXgXN.V.V.B.b.e.e.a.@.+.=X*X&X",
"*X*X9X+X,X2XgXN.V.V.f.f.z.q.s.f.| d f s.q.l.z.n.B.M.B.N.N.M.B.B.B.B.B.n.x.x.a.B.V.e.m.C.C.b.M.B.B.B.B.b.z.z.m.u.5X=X*X*X",
"*X*X@X;X<XgXV.V.n.n.z.w.t.p.3Xo.D p Y f p.t.w.l.m.V.V.M.N.N.N.N.B.N.z.w.e.t.8.[ y.p.w.>.z.C.N.B.M.B.M.M.N.C.m.f.,X8X+X5X",
"*X@X5X<X2XV.N.n.n.r.r.p.....O.S l O.[ /  . .t.w.r.m.n.N.N.M.N.N.n.n.q.r.,.( [ Q p p 9.t.w.z.m.N.B.M.b.b.C.m.e.f.,X*X@X5X",
"%X@X4X<Xs.w.m.z.w.r.u.#.o.}.(.l I [._.D O.o...d.t.w.e.N.B.B.B.N.z.q.p. .! / Q D S X.#...p.0.x.z.M.M.C.C.:.w.a.<X,X=X*X&X",
"=X5X,Xd.w.z.l.q.s.y p S {.'.I S _._.{.}._._.#. .,.0.x.n.N.B.N.C.l.r...| Z [ _ @.o.]._.#. .r.0.x.;.C.z.0.q.e.X i +X*X&X8X",
"=X5X<Xp.w.1.w.s.d z u A S F L W.R.@.+.X.D [ ~ -.-.h.<.x.n.V.b.b.r.t.| }.X.R./ / @.@.~ ~ ( ( ,.a.0.<.<.0.f.+ @ ; &X=X=X&X",
"8X5Xu.p.w.q.8.y # = 9 B A k S A { ] ] B i { ~ 4.4.f e.0.n.n.z.x.p.y D S A C } ~ _ [ ~ 4.^ 4 i s r.0.>.r.d > % $ &X&X=X@X",
"*X5X;X3Xp.8.o @ % % 8 ' q 9 G L G C J J H ) R W R W d s.q.z.l.e.p.Q S B w 8 & E e & c c z Z D ! O g.r.d W ; @ uX4X8X&X+X",
"*X5X;X<Xu.+ > % & , & % 8 0 9 ' 8 w J J w 9 ' g : ` Q ( s.0.l.a.d X.H L 8 e 8 = - * = B g g 9 # @ i  .O ! E kX1X4X+X+X+X",
"*X9X5X,X<X[ & > > > , , G 0 $ e % % ) 7 7 7 0 - * $ ; # ( t.a.d.a ] ` L = ` H = m H 9 q : G 9 = D ] H W Y fXaXfXuX4X5XwX",
"@X@X+X4X<XuX1X. . } } ^ E < @ , , , , > c < & & z - - V o X X X # ` _ ` < R _ R R _ ` ) ) ` ) ` H W W T ~ iXS.pX<X5XwXqX",
"@X9X*X4X:XfXpXiX4.2.&.2.&.4.5 5 t 4 2 t 3.3.Y E ` J ` R Y Y s Y T T Y T ^ ~ ^ 3.3.^ ^ Y 6.{ :XY T Y ~ 2.%.A.A.dXuX9XqX5X",
"@X@X+X4XfXjXhXA.pXpXhXhXj.&.2.3.~ } &.4.&.&.~ 3.T E T / ~ ~ ~ 3.~ 3.6.lX2.2.%.%.$.2.=.1XfX6.~ 3.4.sX=.%.hXhXpX1X4XqXqX9X",
"&X&X&X>XlX5.k.D.pXpXpXiXhXA.j.7.5.$.5.S.S.j.2.=.aXaXaX=.=.$.$.*.2.7.jXS.A.D.D.D.k.hXS.S.c.c.=.5.A.A.D.S.aXsXkXuX5X9X0X0X",
"&X&X9X4X3.&.&.2.6.3 3 i.hXhXD.D.S.S.v.F.S.jXhXiXS.D.F.S.A.D.hXS.iXiXS.Z.Z.k.k.D.A.hXF.aXjXF.aXaXhXhXD.v.i.. 1 >X5X0XzXzX",
"&X&X-X4X{ 6.} > > r r E kXsXaXF.j.aXsXfXsXsXfXfXfXfXsXjXD.k.S.aXpXsXD.Z.k.k.k.A.pXsXsXfXfXgXy./ ^ %.*.4.E # = 4X9XqX0X0X",
"*X&X=X-XuXuX:X% 7 e V _ 4 2 dX6 sX6.Y 4 5 5 Y 4 s 4 Y 1XaXaXaX6.{ i.aXF.F.jXaXsX5 5 T T E ! K P [ ~ / { ] u Y.&X0X0X0XzX",
"*X@X*X9X5X4X8Xg 7 e b ) c c E < _ 1 c c r c < c c c ` E < E E _ ` ] / gX1X{ W D c c v X.O.O.H.).O.X.X.X.8 0 6X0X0X0X0X0X",
"@X8X9X*X@X8X*XOX* % 7 b V n b b C n n v b b n n b n J v M ' C M H x i ! W N R.B v M B T.(.H.J.L.P.J.U.P 8 7 zXzX0X0XzXzX",
"&X8X&X&X8X+X+X-X* * 7 0 7 7 b b C n z b n G b b n m ' m m G m m N n b G b z ' N v v b x L ^.H.U.G.^.K g 8 ' qXqX0X0X0X0X",
"8X&X9X&X9X+X*X-X4XOX8 7 0 7 b b z n b b b G b m z m m m m m V e b b n b N N N v n z z n B L F ^.^.k u 9 q wX9X0X0X0X0XqX",
"*X&X&X&X*X&X*X*X*X8X6X] q 0 7 7 b b e b b V e V V m m G ` ) V b b b n v B v v v m b V m n M N ] j j w  XwXqX0X0X0X0X0XqX",
"*X&X*X&X&X*X*X*X*X*X+X8XOX9 8 0 0 $ 7 8 7 7 0 0 q 9 8 9 8 7 * 0 0 q ' ' z v B G N m q n m 9 q = w v 6XwXzXqX0X0X0X0X0X0X",
"&X8X*X*X&X&X*X@X*X*X8X&X-X|.` ' * 8 8 9 8 0 e G  X7XwX|.w 9 9 9 v C 8X|.E.|.E.R.] ' N q q * g 9 OX7XzXwX0X0X9X0X0X0XqX0X",
"8X&X&X&X&X&X&X&X*X@X*X*X8X-X&X6X6X6X|.C 6X-X6X&XqX9XqX8XqX8XwXwXwXqX8XqXqX8XqXqX9XwXqX6X9XqX9XwXzXwXwXqX0X0X0X0X0X0X0X0X",
"*X8X&X&X&X&X8X&X&X&X*X*X@X@X+X8X&X&X8X&X&XqXqX9X0X0X0X0XqX9X0XqX0XqXqX0X0X9X0X0XqX0XqX0X9XqXqXqX0XqX0XqX0XqX9XzX0X0X0X0X",
"*X*X&X8X8X&X&X*X*X*X*X@X9X*X8X*X&X&X8X9XzXqXqXzX0X0X9X0XzX0X0X0XqX0X0XqX0XzX0X0X0X0X0XqX0X0X0X0XzX*X0XzX0XzX0XqX0X0X0XqX",
"*X*X*X&X&X*X&X&X+X*X*X*X*X+X*X&X*X=X0XqX0X0X0X0X0X0X0X0XqX0X0XqX9X0X0XzX0X0X0X0X0X0XqX9XqXzX0X0X0XqX0X0X0X9X0X9X0X0X0XqX",
"*X%X*X*X*X8X*X*X*X*X*X*X*X*X*X*X0XqX0X0X0X0X9X0XzX9X0X0X0X0X0X0X0X0XzX9X0X0X0X0X0X0X0X0X0X0X0X0X0XqX0X9XzX0X0X0XqX0X0X0X",
"8X*X*X*X*X&X*X@X*X*X&X*X*X&X8X9X0X0X0X0X0X9X0X0X0X0X0X0X0X0X0X0X0X0XqX0X0X0X0X0X0X0X0X0X0X0X0XzX0X0X0X0X0X9X0X0X0XqX0X0X",
"*X*X*X*X*X*X*X*X&X*X&X*X*X&X*X9X9X0X9X0X0X0X0X0X0X0X0X0X0XzX0X0X0X0X0X0X0X0X0X0X0X0X0X0X0X0X0X0X0X0X0X0X0X0X0X0X0X0XqX0X",
"&X&X&X&X*X*X*X*X*X*X*X*X&X&X8X*X*X0X0X0X0X0X0X0X0X0X0X0X0X0X0X0X0X0X0X0X0X0X0X0X0X0X0X0X0X0X0X0XqX0X0XqX0X0XqX0X0X0X9X9X",
"8X8X&X8X&X*X*X*X*X*X*X*X*X*X*X8X*X0X9X0X0X0X0X9X0X=X0X0X0X0X0X0X0X0X0X0X0X0X0X0X0X0X0X0X0X0X0X0X0X0X0X0X0X0X0X0X0X0X0X=X"
};
