/* XPM */
static char *wall1[] = {
/* columns rows colors chars-per-pixel */
"60 60 204 2 ",
"   c #6A1E3D",
".  c #651E3E",
"X  c #70183E",
"o  c #4E2B3F",
"O  c #5B233E",
"+  c #542A3D",
"@  c #63223F",
"#  c #3B364A",
"$  c #681F41",
"%  c #721C45",
"&  c #7C1946",
"*  c #4C2F4C",
"=  c #4D2B45",
"-  c #5D2742",
";  c #5C2B43",
":  c #572A47",
">  c #483248",
",  c #55334D",
"<  c #652241",
"1  c #6B2242",
"2  c #652A47",
"3  c #722146",
"4  c #75284B",
"5  c #68324A",
"6  c #70314E",
"7  c #7B2D53",
"8  c #6E3651",
"9  c #7C3654",
"0  c #7A3B56",
"q  c #7A3559",
"w  c #7B3967",
"e  c #6E4C68",
"r  c #831646",
"t  c #AE1F5D",
"y  c #B31E5E",
"u  c #882B57",
"i  c #942E5C",
"p  c #9C2B5D",
"a  c #9E275C",
"s  c #84345B",
"d  c #8B325B",
"f  c #833958",
"g  c #92315D",
"h  c #A6265D",
"j  c #AC235E",
"k  c #A3295E",
"l  c #B2215E",
"z  c #B71E63",
"x  c #8F2E61",
"c  c #9C2D62",
"v  c #932F61",
"b  c #8E3064",
"n  c #8F3862",
"m  c #943260",
"M  c #963468",
"N  c #AE2561",
"B  c #A32B61",
"V  c #AF2863",
"C  c #B32361",
"Z  c #B92967",
"A  c #BD2369",
"S  c #A73568",
"D  c #B03069",
"F  c #BF3570",
"G  c #BB2B70",
"H  c #C2236B",
"J  c #CB2C72",
"K  c #CA3A77",
"L  c #D4347A",
"P  c #DB347E",
"I  c #DA397F",
"U  c #D73A7F",
"Y  c #E0347E",
"T  c #84406F",
"R  c #99476B",
"E  c #9C5676",
"W  c #9B5977",
"Q  c #9D5A7A",
"!  c #925E75",
"~  c #844A70",
"^  c #AE4E7A",
"/  c #AA4E77",
"(  c #B94A7B",
")  c #A25577",
"_  c #A85177",
"`  c #A55579",
"'  c #AB547B",
"]  c #A45A7B",
"[  c #AA597D",
"{  c #B1537D",
"}  c #82617C",
"|  c #9E627C",
" . c #A2617F",
".. c #D3427E",
"X. c #C6417A",
"o. c #CC3C81",
"O. c #DB3A82",
"+. c #DA3980",
"@. c #E13581",
"#. c #AC5E80",
"$. c #B65A82",
"%. c #BA5B85",
"&. c #B65582",
"*. c #B34A82",
"=. c #8C7593",
"-. c #8E7998",
";. c #857D95",
":. c #937593",
">. c #8C6E8A",
",. c #AD6384",
"<. c #A96889",
"1. c #B36285",
"2. c #BA6187",
"3. c #B26C8C",
"4. c #BF6B8F",
"5. c #B96589",
"6. c #AA6A92",
"7. c #BB6E92",
"8. c #BC7494",
"9. c #B97B97",
"0. c #D1568A",
"q. c #C3658E",
"w. c #CB6A94",
"e. c #CF6E99",
"r. c #CA6691",
"t. c #C07597",
"y. c #C27C9B",
"u. c #CA769C",
"i. c #D3739D",
"p. c #D8719E",
"a. c #D76598",
"s. c #D57CA4",
"d. c #DD7AA5",
"f. c #DB77A4",
"g. c #E479A7",
"h. c #EF76AC",
"j. c #E37DAA",
"k. c #ED7EAE",
"l. c #E076A3",
"z. c #F47BAF",
"x. c #F578AE",
"c. c #EC7FB0",
"v. c #F67DB2",
"b. c #F87DB3",
"n. c #F777B0",
"m. c #E86DA4",
"M. c #7B8295",
"N. c #768393",
"B. c #6F8495",
"V. c #838091",
"C. c #A2849E",
"Z. c #988BA4",
"A. c #BF8CA3",
"S. c #A292AD",
"D. c #BC91A5",
"F. c #C2839F",
"G. c #C486A2",
"H. c #CB86A5",
"J. c #C38BA4",
"K. c #C98BA5",
"L. c #C68EA8",
"P. c #CA8CA9",
"I. c #DE85AD",
"U. c #DD8AAE",
"Y. c #D489AA",
"T. c #C290A6",
"R. c #C593A9",
"E. c #C992AB",
"W. c #D090AB",
"Q. c #DE89B0",
"!. c #CE9AB0",
"~. c #D39CB4",
"^. c #D59BB6",
"/. c #E482AD",
"(. c #EB81AF",
"). c #E688AD",
"_. c #E485B1",
"`. c #EC84B2",
"'. c #E98AB6",
"]. c #F481B3",
"[. c #FA81B5",
"{. c #FD83B9",
"}. c #D7A5BB",
"|. c #FF96CC",
" X c #FF9ACC",
".X c #DCACC2",
"XX c #E3ACC9",
"oX c #F0A1CE",
"OX c #E9B4CC",
"+X c #FAA3D0",
"@X c #F3A4D1",
"#X c #EBBBD2",
"$X c #F4BCD6",
"%X c #FABEDA",
"&X c #EFC6D9",
"*X c #EEC9DB",
"=X c #EDC0D5",
"-X c #F3C0D7",
";X c #F5C5DB",
":X c #F9C5DD",
">X c #F3C9DD",
",X c #FBC9DF",
"<X c #F6C9E0",
"1X c #FCC7E1",
/* pixels */
"b.b.b.b.b.b.b.b.b.b.b.b.b.z.v.v.].].b.b.b.].b.b.].b.[.v.v.].v.[.b.v.].c.[.v.[.v.b.n.[.n.b.b.b.b.b.{.v.v.b.b.b.[.b.v.b.n.",
"b.b.b.b.b.b.b.b.b.b.b.b.[.b.z.b.z.b.[.z.b.b.b.v.v.{.z.[.v.[.v.v.v.[.b.[.v.v.[.b.v.v.b.[.v.z.b.b.v.v.v.{.b.z.b.b.b.b.b.z.",
"b.b.v.v.v.].b.b.b.b.b.b.b.b.b.b.b.z.z.b.z.].b.b.b.b.b.z.b.b.v.[.[.v.b.x.v.v.b.b.b.v.b.[.b.b.b.v.b.].b.n.b.b.b.b.v.b.[.b.",
"b.b.b.].].v.v.].].b.b.b.b.b.b.b.b.b.b.[.b.b.b.b.n.b.{.v.`.`.`.`.].(.v.].v.b.b.v.[.v.v.v.v.[.v.[.b.b.b.b.b.b.x.[.[.b.b.].",
"b.b.b.b.b.b.b.].z.[.v.b.b.b.b.b.b.b.b.].b.b.b.b.[.z.(.`._.q.' ' ` ' ' %.).(.[.[.v.b.b.b.b.b.z.b.v.v.v.b.b.b.b.b.b.b.b.b.",
"b.b.b.b.b.b.b.b.[.z.b.].b.b.b.b.b.b.b.].v.b.b.b.b.].(.$.' ) W Q  . .E Q _ [ ).].[.[.z.z.b.b.{.z.b.b.b.[.b.v.[.v.].].b.b.",
"v.v.b.b.v.b.b.b.b.[.b.b.b.b.b.b.b.b.b.z.b.b.b.z.]./.` ] ] R.-X;X-X;X,X;X#XK.F.[ _.k.[.b.b.z.[.[.b.v.k.`.(.f./.`.(.].v.v.",
"v.].b.b.b.b.b.b.b.b.b.b.b.b.b.b.b.b.b.b.].b.b.].g.' [ G.T.#X-X>X*X>X>X*X>X>X:X$X] { `.`.].].].(.`.`.r.' ' ` [ ` { f.`.`.",
"[.b.b.b.b.b.b.z.b.[.b.b.b.b.b.b.b.b.[.b.[.].[.`.` t.J.}.;X>X,X!.T.F.!.T.J.R.-X,X:X1X3.E 1.4.q.[ ' ] E ] J.J.J.J.H.Q ' 1.",
"c.c.v.j.l.l.p./.(.].x.[.x.b.b.b.b.b.z.[.[.].`.{ ] J.-X-X,XE.J.J.J.F.T.T.J.J.J.J..X>X-X9.<.| Q E Q J.J.A.;X<X<X<X^.J.J.Q ",
"s.^ #._ ] E E ] ' ).].[.[.b.z.z.b.b.z.b.z.[.`.' H.>X>X*X=XA.A.T.T.T.T.J.F.E.K.J.J.J.D.,X-X}.E.E.^.$X;X<X;X#X#X;X;X;X#X! ",
"E Q 7.P.J.J.:X:XY.{ /.].b.{.z.b.n.b.[.x.].].l.[ W.,X>XD.D.T.A.J.T.F.J.J.K.F.K.K.K.J.J.D.,X>X;X:X,X;X,X-X!.J.R.A.T.;X;X;X",
"8.W.G.$X>X>X*X>XJ.Y.{ (.[.].b.[.b.b.b.b.b.].r.' %X<X&XD.J.A.J.J.J.J.G.K.G.P.L.J.K.J.F.T.J.K.E.R.T.A.J.J.J.J.J.J.J.J.A.;X",
"L.^.,X;X>X*X*X&XXXF.' `.].b.[.b.b.b.b.b.z.[.p._ }.-XA.J.J.K.F.J.H.y.9.H.H.H.J.J.J.J.K.J.F.J.R.J.J.A.J.A.J.J.G.J.J.A.J.A.",
"R.;X1XR.;XD.>X>X,XF.[ `.z.z.x.b.n.b.b.{.[.]./.' H.J.K.K.H.1.] ] ' ' ' ] <.G.J.J.A.T.J.J.E.J.J.J.J.J.J.J.J.J.R.J.L.A.J.G.",
";X;X.XA.T.D.>X;X;XF.' ).].].[.b.[.b.b.z.z.v.'._ G.L.H.Y.1.' _ ).`.`._.u.' H.J.A.J.J.J.K.G.J.G.J.J.J.J.J.G.A.J.J.J.J.J.L.",
";X;XT.A.J.J.}.,XOX] _ `.].].b.b.b.b.v.[.b.z.`.s.2 | t.Q.' 2.(.].v.v.c.`.`.' A.G.A.L.G.H.J.J.J.J.T.K.J.T.F.T.T.T.J.T.J.G.",
"J.J.A.R.A.A.A.J.K.] [ (.].z.b.b.b.b.[.v.v.].).3 < . 3 I.' i.z.b.v.b.b.v.]._.] 3.L.G.J.J.J.J.K.K.K.F.K.F.T.T.F.F.F.J.J.J.",
"J.J.K.J.J.J.J.J.K.E [ `.z.v.n.v.].[.z.z.b.[.[ < s % 3 U.(.z.[.z.v.v.b.b.[.].s.' G.L.J.G.J.J.J.J.F.T.T.T.T.F.J.J.K.T.J.J.",
"J.G.J.J.K.G.J.J.J.3.` `.].v.v.[.v.v.z.[.b.].1 1 d d X '.].].b.].v.{.h.b.v.]./.[ ] G.J.L.A.A.J.R.J.T.F.T.T.T.J.J.J.K.J.J.",
"T.J.J.J.L.G.L.J.J.G.#./.[.b.v.v.b.[.b.b.b.b.% 4 % m p i S k.].z.c.b.b.b.b.v.c.c.' G.L.G.J.A.A.A.J.J.T.F.F.T.J.J.J.J.F.T.",
"J.A.L.J.J.J.L.G.J.L.G.s.`.v.[.v.n.b.b.b.b.c p g & p a B u & c.v.v.v.b.b.b.b.b.`._ ,.P.L.J.J.A.T.J.J.T.T.T.J.J.J.J.J.J.T.",
"A.J.J.A.A.J.J.J.J.J.P.' r.].].z.b.b.n.b.S c a k j 0.|.a a r m.n.c.b.b.v.v.v.v.c.u.) G.G.L.J.A.A.J.T.F.T.K.K.J.J.J.J.J.T.",
"A.J.J.A.J.J.J.J.J.J.J.3.' `.].[.b.b.b.b.p i k j y ..|.a.p i k.].].v.v.b.].v.b.`.`.' y.P.J.J.J.J.T.F.J.K.F.K.J.J.J.J.T.F.",
"L.J.G.J.J.J.J.F.A.A.J.G.' 2.(.[.b.b.b.v.g i p B l K 0. Xi 4 & _.v.v.v.b.b.v.v.v.`.$.) G.J.E.F.J.F.T.J.J.J.F.E.T.J.J.J.G.",
"G.L.J.J.G.R.A.R.J.L.G.L.Q ' ].z.b.b.b.c.d n i a j l K |.d.% % _.'.v.v.b.b.b.b.].].`.' G.K.G.J.R.J.J.K.K.F.K.F.J.J.J.J.K.",
"P.J.G.J.J.J.J.T.J.G.P.G.Q [ (.[.[.c.v.`.7 q b c h V ( |. Xi `.`.b.b.b.b.b.b.b.v.[.`.q.) H.K.K.F.F.J.F.K.F.F.F.F.]  .9.6.",
"Q 9.K.K.J.J.T.F.P.G.P.G.] ' ].n.b.[.v.&.2 2 q b i u u +Xu.b c.v.b.b.b.b.b.b.b.b.b.b.`.[ [ t.W.K.T.T.T.K.Y.8.4.).U.' _ #.",
"1.,.u. .Q  .K.K.G.H.H.7.' _.b.b.v.c.b.d.= e # * * , * * = 2 `.b.b.b.b.b.b.b.b.b.b.n.[.`.2.' ) F.K.K.F.[ _ e.).].c.'.e.*.",
").i.{ { _ ] ,.1.#.] #./ q.].b.n.[.b.b.'.=.M.N.M.-.=.M.V.C.6.'.b.b.b.b.b.v.b.b.b.v.b.v.v.`.p.' '  . .' _ /.(.].].b.c.v.*.",
"].].b.z.p.e.' ' ' ^ &.'.c.b.b.b.n.n.b.Q.>.M.B.M.w T -.Z.XXM v.b.b.b.v.v.b.b.b.b.b.b.v.v.].z.(.g.r.q.l.(.b.z.b.[.v.b.v.h.",
"b.b.b.b.z.z.].(._.`._.c.b.b.b.b.b.n.h.oX= # M.-.M b -.S.oXS h.b.b.b.].].v.b.b.b.b.v.b.b.].[.b.].z.z.[.b.[.b.b.b.b.v.v.v.",
"b.b.b.b.b.b.].v.].v.v.].v.b.b.v.b.b.b._.; * } T c v -.Z.@Xc h.b.b.b.b.b.b.b.v.b.v.v.b.b.v.b.b.v.v.v.v.b.b.v.b.b.b.v.b.v.",
"b.x.b.b.b.b.b.b.b.b.b.b.b.b.b.b.b.b.b.`.< ; e s k m =.:.+XS h.b.b.b.b.b.b.b.b.b.b.b.b.b.b.b.b.b.b.b.v.b.b.b.v.b.b.b.v.b.",
"b.b.b.b.b.b.b.n.v.b.b.b.b.b.b.b.b.b.b.].< 8 q m c c <.6. XD v.[.b.b.b.b.v.b.b.b.b.b.b.b.b.b.b.v.b.b.b.b.b.v.b.b.b.b.b.v.",
"b.b.b.b.b.b.b.b.b.b.b.v.b.b.v.b.b.b.b.`.< 0 s m N B c *.|.D [.v.b.b.b.b.b.b.b.v.b.b.b.v.v.b.b.b.b.v.b.b.b.b.b.b.b.b.v.v.",
"b.b.b.b.b.b.n.b.b.b.v.b.b.b.b.b.b.v.b.`.$ 0 d p h t G o.o.V b.b.v.b.v.b.b.b.b.b.b.v.b.b.b.b.b.v.b.b.b.b.b.b.b.v.b.b.n.b.",
"b.b.b.b.b.b.b.b.b.b.b.b.v.b.v.b.b.b.b.`.< 9 d c j t H O.O.A b.b.b.b.b.b.b.b.b.b.b.v.v.b.b.b.b.b.b.v.b.v.b.b.b.b.b.b.b.v.",
"b.b.b.b.b.b.b.b.b.b.b.b.b.v.b.b.[.b.n.(.  9 d a N t A O.o.Z b.b.b.b.v.b.v.b.b.b.b.b.v.b.b.b.b.b.b.b.v.b.v.b.b.b.b.v.b.v.",
"b.b.b.b.b.b.b.b.b.b.b.b.b.b.b.b.v.[.b.v.  f i k B t z O.+.z n.b.b.b.b.b.b.b.b.v.b.b.b.b.b.v.b.b.b.b.b.b.b.b.b.b.b.b.b.b.",
"n.b.b.v.b.v.b.b.b.v.b.b.b.b.b.v.z.].[.(.@ f d p k t A +.P y b.n.b.b.b.b.b.b.b.v.b.v.b.b.b.b.b.b.b.b.b.b.b.b.b.v.b.b.v.b.",
"b.b.b.b.b.b.b.b.b.b.b.b.b.b.b.v.[.[.].(.  f d p h C z O.I z b.b.b.b.v.n.v.b.b.b.b.b.b.b.b.b.b.v.b.b.v.b.v.b.b.b.b.b.b.b.",
"b.b.b.b.b.b.b.v.b.b.b.v.b.b.b.b.b.x.[.].X f f p h N H P L l n.[.b.b.b.v.v.b.b.b.b.b.b.v.b.b.b.b.b.v.b.v.b.b.b.b.v.b.b.b.",
"b.b.b.b.v.b.b.b.b.b.b.b.b.b.b.b.x.[.[.(.@ f d i B t L P J C b.b.v.b.b.b.{.b.b.b.b.b.b.b.b.v.b.b.b.b.b.b.b.b.v.b.b.b.b.v.",
"b.b.b.b.b.b.b.b.b.b.b.v.b.b.b.b.[.z.].w.@ 0 s g k j @.P J l b.b.v.b.b.{.b.b.b.b.v.b.b.b.b.b.b.b.b.v.b.b.v.b.b.b.b.b.b.b.",
"b.b.b.v.b.b.v.b.v.b.b.b.v.b.v.b.[.z.].{ O 5 f g p j P @.I y b.b.b.b.v.v.v.v.b.b.b.b.b.v.b.v.b.b.b.b.b.b.b.b.b.v.b.v.b.b.",
"b.b.b.b.b.v.b.v.b.b.b.b.b.b.b.b.[.[.].w.O + 6 d a j L @.O.l b.b.b.b.b.n.v.n.v.b.b.b.b.b.v.b.v.b.b.b.b.b.b.v.v.b.v.b.v.b.",
"b.v.b.b.b.b.b.b.b.b.b.b.v.b.b.b.x.].].e.+ + @ d a j P Y L z b.v.b.b.b.b.b.n.b.v.b.b.b.b.b.b.b.b.v.b.b.b.b.n.b.v.b.b.b.b.",
"b.b.b.b.v.b.b.b.b.b.b.b.b.b.b.b.b.n.b.Q.: = 6 f i h Y L J k v.v.v.b.b.b.v.b.v.b.b.b.b.v.b.b.v.b.b.b.b.b.[.b.v.b.v.b.b.b.",
"b.b.b.b.b.b.b.v.b.b.v.b.v.b.b.b.n.b.b.Q.- : 6 4 f p K ..a X `.`.`.c.`._.c.v.].v.b.b.].v.b.v.v.[.v.b.].b.v.[.b.b.b.b.b.b.",
"v.b.b.b.b.b.b.b.v.b.b.b.b.b.b.b.n.b.b.j.O o ; - 9 u i i d s % R #.~ #.*.' %.d././._.c._.].].v.v.[.b.].v.b.b.b.b.b.b.b.b.",
"b.b.b.v.b.v.b.b.b.b.b.v.b.b.v.b.{.b.v.c.@ - ; O @ < 7 @ @ @ @ Q #.#.#.R ' ' ' ^ *.^ / &.&.v.[.v.v.v.b.b.b.b.b.v.b.v.b.b.",
"b.b.b.b.b.b.b.b.v.b.b.b.b.v.v.v.x.[.[.].I.R @ @ @ @ 2 O 2 2 W ] ] ` ' p.`.].(.j.w.%.&.*.g.].v.b.b.v.b.b.v.b.b.b.b.b.b.b.",
"v.b.b.v.b.v.b.b.b.b.b.b.b.b.n.b.[.].x.x.].(.).).U.[ Q | W E [ ` ' / q.(.z.].z.].`.`.'.c.`.].b.n.b.b.b.b.b.b.b.v.b.v.b.v.",
"b.b.b.b.v.b.v.b.b.b.b.b.v.b.n.v.[.[.].].].].].].(.].].(./.(.g.(.(.].z.].v.v.[.v.v.].v.[.b.v.z.v.v.b.b.v.b.v.b.b.b.b.v.b.",
"b.b.b.b.b.b.b.b.b.v.b.b.v.n.b.v.].x.x.].[.[.x.].z.[.z.b.[.z.b.].b.b.[.z.[.b.v.b.n.b.b.n.v.b.v.[.v.b.b.b.b.v.b.b.b.b.b.b.",
"b.b.b.b.b.b.b.v.b.b.b.v.b.v.b.v.x.].b.z.v.v.n.b.v.].v.v.b.b.b.v.b.b.z.[.b.v.b.b.b.b.b.b.b.b.b.b.v.n.v.b.v.b.b.v.b.b.b.v.",
"v.b.v.b.v.b.b.b.b.b.b.b.b.b.v.b.z.b.x.b.v.v.n.b.v.v.v.v.v.b.b.v.b.b.b.z.v.v.v.n.v.b.v.b.b.v.v.n.b.v.n.v.b.b.b.b.b.b.b.b.",
"b.v.b.b.b.b.v.v.b.b.b.b.b.b.b.v.b.b.b.b.b.b.b.b.v.v.v.c.v.b.v.b.b.b.b.v.b.b.z.b.v.v.b.v.v.b.b.b.[.v.b.v.b.b.v.v.v.v.b.v.",
"b.b.b.b.b.b.v.v.b.b.v.b.b.n.v.v.b.b.n.b.n.v.b.b.v.c.v.v.v.b.].v.b.b.b.b.[.b.b.b.b.b.[.].].[.].].b.b.v.b.].b.v.v.v.[.{.{."
};
